<?xml version="1.0" encoding="UTF-8" standalone="no"?>
<svg
   width="512"
   height="512"
   viewBox="0 0 135.46666 135.46666"
   version="1.1"
   id="svg8"
   inkscape:version="1.2.1 (9c6d41e410, 2022-07-14)"
   sodipodi:docname="karoly-lonich-logo.svg"
   inkscape:export-filename="C:\Users\karcsika\Desktop\logo.png"
   inkscape:export-xdpi="46.880001"
   inkscape:export-ydpi="46.880001"
   xmlns:inkscape="http://www.inkscape.org/namespaces/inkscape"
   xmlns:sodipodi="http://sodipodi.sourceforge.net/DTD/sodipodi-0.dtd"
   xmlns="http://www.w3.org/2000/svg"
   xmlns:svg="http://www.w3.org/2000/svg"
   xmlns:rdf="http://www.w3.org/1999/02/22-rdf-syntax-ns#"
   xmlns:cc="http://creativecommons.org/ns#"
   xmlns:dc="http://purl.org/dc/elements/1.1/">
  <defs
     id="defs2">
    <inkscape:path-effect
       effect="fillet_chamfer"
       id="path-effect39"
       is_visible="true"
       lpeversion="1"
       satellites_param="F,0,0,1,0,14,0,1 @ F,0,0,1,0,14,0,1 @ F,0,0,1,0,14,0,1 @ F,0,0,1,0,14,0,1 @ F,0,0,1,0,14,0,1 @ F,0,0,1,0,14,0,1 @ F,0,0,1,0,14,0,1 @ F,0,0,1,0,14,0,1 @ F,0,0,1,0,14,0,1 @ F,0,0,1,0,14,0,1 @ F,0,0,1,0,14,0,1 @ F,0,0,1,0,14,0,1 @ F,0,0,1,0,14,0,1 @ F,0,0,1,0,14,0,1 @ F,0,0,1,0,14,0,1 @ F,0,0,1,0,14,0,1 @ F,0,0,1,0,14,0,1 @ F,0,0,1,0,14,0,1 @ F,0,0,1,0,14,0,1 @ F,0,0,1,0,14,0,1 @ F,0,0,1,0,14,0,1 @ F,0,0,1,0,14,0,1 @ F,0,0,1,0,14,0,1 @ F,0,0,1,0,14,0,1 @ F,0,0,1,0,14,0,1 @ F,0,0,1,0,14,0,1 | F,0,0,1,0,14,0,1 @ F,0,0,1,0,14,0,1 @ F,0,0,1,0,14,0,1 @ F,0,0,1,0,14,0,1 @ F,0,0,1,0,14,0,1 @ F,0,0,1,0,14,0,1 @ F,0,0,1,0,14,0,1 @ F,0,0,1,0,14,0,1 @ F,0,0,1,0,14,0,1 @ F,0,0,1,0,14,0,1 @ F,0,0,1,0,14,0,1 @ F,0,0,1,0,14,0,1 @ F,0,0,1,0,14,0,1 @ F,0,0,1,0,14,0,1 @ F,0,0,1,0,14,0,1 @ F,0,0,1,0,14,0,1 @ F,0,0,1,0,14,0,1 @ F,0,0,1,0,14,0,1 @ F,0,0,1,0,14,0,1 @ F,0,0,1,0,14,0,1 @ F,0,0,1,0,14,0,1 @ F,0,0,1,0,14,0,1 @ F,0,0,1,0,14,0,1 @ F,0,0,1,0,14,0,1 @ F,0,0,1,0,14,0,1 @ F,0,0,1,0,14,0,1 | F,0,0,1,0,14,0,1 @ F,0,0,1,0,14,0,1 @ F,0,0,1,0,14,0,1 @ F,0,0,1,0,14,0,1 @ F,0,0,1,0,14,0,1 @ F,0,0,1,0,14,0,1 @ F,0,0,1,0,14,0,1 @ F,0,0,1,0,14,0,1 @ F,0,0,1,0,14,0,1 @ F,0,0,1,0,14,0,1 @ F,0,0,1,0,14,0,1 @ F,0,0,1,0,14,0,1 @ F,0,0,1,0,14,0,1 @ F,0,0,1,0,14,0,1 @ F,0,0,1,0,14,0,1 @ F,0,0,1,0,14,0,1 @ F,0,0,1,0,14,0,1 @ F,0,0,1,0,14,0,1 @ F,0,0,1,0,14,0,1 @ F,0,0,1,0,14,0,1 @ F,0,0,1,0,14,0,1 @ F,0,0,1,0,14,0,1 @ F,0,0,1,0,14,0,1 @ F,0,0,1,0,0.02386459,0,1 @ F,0,0,1,0,14,0,1 @ F,0,0,1,0,14,0,1 | F,0,0,1,0,14,0,1 @ F,0,0,1,0,14,0,1 @ F,0,0,1,0,14,0,1 @ F,0,0,1,0,14,0,1 @ F,0,0,1,0,14,0,1 @ F,0,0,1,0,14,0,1 @ F,0,0,1,0,14,0,1 @ F,0,0,1,0,14,0,1 @ F,0,0,1,0,14,0,1 @ F,0,0,1,0,14,0,1 @ F,0,0,1,0,14,0,1 @ F,0,0,1,0,14,0,1 @ F,0,0,1,0,14,0,1 @ F,0,0,1,0,14,0,1 @ F,0,0,1,0,14,0,1 @ F,0,0,1,0,14,0,1 @ F,0,0,1,0,14,0,1 @ F,0,0,1,0,14,0,1 @ F,0,0,1,0,14,0,1 @ F,0,0,1,0,14,0,1 @ F,0,0,1,0,14,0,1 @ F,0,0,1,0,14,0,1 @ F,0,0,1,0,14,0,1 @ F,0,0,1,0,14,0,1 @ F,0,0,1,0,14,0,1 @ F,0,0,1,0,14,0,1 @ F,0,0,1,0,14,0,1 @ F,0,0,1,0,14,0,1 @ F,0,0,1,0,14,0,1 @ F,0,0,1,0,14,0,1 @ F,0,0,1,0,14,0,1 @ F,0,0,1,0,0.21726132,0,1"
       unit="px"
       method="auto"
       mode="F"
       radius="14"
       chamfer_steps="1"
       flexible="false"
       use_knot_distance="true"
       apply_no_radius="true"
       apply_with_radius="true"
       only_selected="false"
       hide_knots="false"
       nodesatellites_param="F,0,0,1,0,14,0,1 @ F,0,0,1,0,14,0,1 @ F,0,0,1,0,14,0,1 @ F,0,0,1,0,14,0,1 @ F,0,0,1,0,14,0,1 @ F,0,0,1,0,14,0,1 @ F,0,0,1,0,14,0,1 @ F,0,0,1,0,14,0,1 @ F,0,0,1,0,14,0,1 @ F,0,0,1,0,14,0,1 @ F,0,0,1,0,14,0,1 @ F,0,0,1,0,14,0,1 @ F,0,0,1,0,14,0,1 @ F,0,0,1,0,14,0,1 @ F,0,0,1,0,14,0,1 @ F,0,0,1,0,14,0,1 @ F,0,0,1,0,14,0,1 @ F,0,0,1,0,14,0,1 @ F,0,0,1,0,14,0,1 @ F,0,0,1,0,14,0,1 @ F,0,0,1,0,14,0,1 @ F,0,0,1,0,14,0,1 @ F,0,0,1,0,14,0,1 @ F,0,0,1,0,14,0,1 @ F,0,0,1,0,14,0,1 @ F,0,0,1,0,14,0,1 | F,0,0,1,0,14,0,1 @ F,0,0,1,0,14,0,1 @ F,0,0,1,0,14,0,1 @ F,0,0,1,0,14,0,1 @ F,0,0,1,0,14,0,1 @ F,0,0,1,0,14,0,1 @ F,0,0,1,0,14,0,1 @ F,0,0,1,0,14,0,1 @ F,0,0,1,0,14,0,1 @ F,0,0,1,0,14,0,1 @ F,0,0,1,0,14,0,1 @ F,0,0,1,0,14,0,1 @ F,0,0,1,0,14,0,1 @ F,0,0,1,0,14,0,1 @ F,0,0,1,0,14,0,1 @ F,0,0,1,0,14,0,1 @ F,0,0,1,0,14,0,1 @ F,0,0,1,0,14,0,1 @ F,0,0,1,0,14,0,1 @ F,0,0,1,0,14,0,1 @ F,0,0,1,0,14,0,1 @ F,0,0,1,0,14,0,1 @ F,0,0,1,0,14,0,1 @ F,0,0,1,0,14,0,1 @ F,0,0,1,0,14,0,1 @ F,0,0,1,0,14,0,1 | F,0,0,1,0,14,0,1 @ F,0,0,1,0,14,0,1 @ F,0,0,1,0,14,0,1 @ F,0,0,1,0,14,0,1 @ F,0,0,1,0,14,0,1 @ F,0,0,1,0,14,0,1 @ F,0,0,1,0,14,0,1 @ F,0,0,1,0,14,0,1 @ F,0,0,1,0,14,0,1 @ F,0,0,1,0,14,0,1 @ F,0,0,1,0,14,0,1 @ F,0,0,1,0,14,0,1 @ F,0,0,1,0,14,0,1 @ F,0,0,1,0,14,0,1 @ F,0,0,1,0,14,0,1 @ F,0,0,1,0,14,0,1 @ F,0,0,1,0,14,0,1 @ F,0,0,1,0,14,0,1 @ F,0,0,1,0,14,0,1 @ F,0,0,1,0,14,0,1 @ F,0,0,1,0,14,0,1 @ F,0,0,1,0,14,0,1 @ F,0,0,1,0,14,0,1 @ F,0,0,1,0,0.02386459,0,1 @ F,0,0,1,0,14,0,1 @ F,0,0,1,0,14,0,1 | F,0,0,1,0,14,0,1 @ F,0,0,1,0,14,0,1 @ F,0,0,1,0,14,0,1 @ F,0,0,1,0,14,0,1 @ F,0,0,1,0,14,0,1 @ F,0,0,1,0,14,0,1 @ F,0,0,1,0,14,0,1 @ F,0,0,1,0,14,0,1 @ F,0,0,1,0,14,0,1 @ F,0,0,1,0,14,0,1 @ F,0,0,1,0,14,0,1 @ F,0,0,1,0,14,0,1 @ F,0,0,1,0,14,0,1 @ F,0,0,1,0,14,0,1 @ F,0,0,1,0,14,0,1 @ F,0,0,1,0,14,0,1 @ F,0,0,1,0,14,0,1 @ F,0,0,1,0,14,0,1 @ F,0,0,1,0,14,0,1 @ F,0,0,1,0,14,0,1 @ F,0,0,1,0,14,0,1 @ F,0,0,1,0,14,0,1 @ F,0,0,1,0,14,0,1 @ F,0,0,1,0,14,0,1 @ F,0,0,1,0,14,0,1 @ F,0,0,1,0,14,0,1 @ F,0,0,1,0,14,0,1 @ F,0,0,1,0,14,0,1 @ F,0,0,1,0,14,0,1 @ F,0,0,1,0,14,0,1 @ F,0,0,1,0,14,0,1 @ F,0,0,1,0,0.21726132,0,1" />
    <inkscape:path-effect
       effect="join_type"
       id="path-effect8662"
       is_visible="true"
       linecap_type="round"
       line_width="1.75"
       linejoin_type="bevel"
       miter_limit="99.7"
       attempt_force_join="true" />
    <inkscape:path-effect
       effect="bend_path"
       id="path-effect8660"
       is_visible="true"
       bendpath="M 35.423828,256.00098 H 476.57617"
       prop_scale="1.22"
       scale_y_rel="false"
       vertical="false" />
    <inkscape:path-effect
       effect="spiro"
       id="path-effect985"
       is_visible="true" />
    <inkscape:path-effect
       effect="spiro"
       id="path-effect981"
       is_visible="true" />
    <inkscape:path-effect
       is_visible="true"
       id="path-effect976"
       effect="spiro" />
    <inkscape:path-effect
       is_visible="true"
       id="path-effect972"
       effect="spiro" />
    <inkscape:path-effect
       is_visible="true"
       id="path-effect161"
       effect="spiro" />
    <inkscape:path-effect
       effect="spiro"
       id="path-effect157"
       is_visible="true" />
    <inkscape:path-effect
       effect="spiro"
       id="path-effect69"
       is_visible="true" />
    <inkscape:path-effect
       is_visible="true"
       id="path-effect58"
       effect="spiro" />
    <inkscape:path-effect
       is_visible="true"
       id="path-effect42"
       effect="spiro" />
    <inkscape:path-effect
       effect="spiro"
       id="path-effect38"
       is_visible="true" />
  </defs>
  <sodipodi:namedview
     id="base"
     pagecolor="#d8dde4"
     bordercolor="#666666"
     borderopacity="1.0"
     inkscape:pageopacity="0"
     inkscape:pageshadow="2"
     inkscape:zoom="1"
     inkscape:cx="226.5"
     inkscape:cy="250"
     inkscape:document-units="px"
     inkscape:current-layer="layer1"
     showgrid="true"
     inkscape:pagecheckerboard="true"
     width="512mm"
     units="px"
     objecttolerance="5"
     guidetolerance="5"
     showguides="true"
     inkscape:guide-bbox="true"
     inkscape:window-width="1366"
     inkscape:window-height="707"
     inkscape:window-x="0"
     inkscape:window-y="0"
     inkscape:window-maximized="1"
     inkscape:document-rotation="0"
     inkscape:showpageshadow="2"
     inkscape:deskcolor="#d8dde4">
    <inkscape:grid
       type="xygrid"
       id="grid10"
       empspacing="1" />
    <sodipodi:guide
       position="67.73333,26.987499"
       orientation="1,0"
       id="guide14"
       inkscape:locked="false" />
    <sodipodi:guide
       position="0,67.73333"
       orientation="0,1"
       id="guide16"
       inkscape:locked="false" />
    <sodipodi:guide
       position="9.2604162,67.73333"
       orientation="1,0"
       id="guide20"
       inkscape:locked="false" />
    <sodipodi:guide
       position="126.20624,67.73333"
       orientation="1,0"
       id="guide22"
       inkscape:locked="false" />
    <sodipodi:guide
       position="48.154164,100.54166"
       orientation="1,0"
       id="guide24"
       inkscape:locked="false"
       inkscape:label=""
       inkscape:color="rgb(0,0,255)" />
    <sodipodi:guide
       position="87.312496,95.249995"
       orientation="1,0"
       id="guide26"
       inkscape:locked="false"
       inkscape:label=""
       inkscape:color="rgb(0,0,255)" />
    <sodipodi:guide
       position="28.574999,112.44791"
       orientation="1,0"
       id="guide28"
       inkscape:locked="false"
       inkscape:label=""
       inkscape:color="rgb(0,0,255)" />
    <sodipodi:guide
       position="106.89166,119.06249"
       orientation="1,0"
       id="guide30"
       inkscape:locked="false"
       inkscape:label=""
       inkscape:color="rgb(0,0,255)" />
  </sodipodi:namedview>
  <metadata
     id="metadata5">
    <rdf:RDF>
      <cc:Work
         rdf:about="">
        <dc:format>image/svg+xml</dc:format>
        <dc:type
           rdf:resource="http://purl.org/dc/dcmitype/StillImage" />
        <dc:title />
      </cc:Work>
    </rdf:RDF>
  </metadata>
  <g
     inkscape:label="Layer 1"
     inkscape:groupmode="layer"
     id="layer1"
     transform="translate(0,-161.53336)">
    <circle
       style="opacity:1;fill:#2e3439;fill-opacity:1;fill-rule:evenodd;stroke:#666666;stroke-width:0.5201574;stroke-linecap:round;stroke-linejoin:round;stroke-miterlimit:4;stroke-dasharray:none;stroke-opacity:1;paint-order:normal"
       id="path8666"
       cx="67.73333"
       cy="229.26669"
       r="67.473251" />
    <path
       id="circle18"
       style="opacity:1;fill:#27ae60;fill-opacity:1;fill-rule:nonzero;stroke:#2e3439;stroke-width:1.75;stroke-linecap:round;stroke-linejoin:round;stroke-miterlimit:4;stroke-dasharray:none;stroke-opacity:1;paint-order:normal"
       d="m 242.01084,35.913271 c -15.72131,1.0481 -31.28536,3.777746 -46.42507,8.142094 -7.4282,2.141341 -9.58425,9.103712 -5.24788,15.223932 7.87077,11.594002 11.31901,16.845411 15.273,23.489338 0.007,0.01134 3.24314,5.394936 6.93263,12.189315 0.006,0.01141 3.02757,5.51832 6.44861,12.45176 0.007,0.0132 2.8112,5.63521 5.95979,12.69655 0.006,0.0136 2.59177,5.73982 5.46403,12.918 0.005,0.0136 2.36507,5.83631 4.95716,13.12035 0.005,0.0151 2.13676,5.92631 4.44473,13.3053 0.005,0.0148 1.90731,6.00308 3.92723,13.46606 0.004,0.0141 1.67336,6.07086 3.4013,13.6068 0.003,0.0144 1.43465,6.13205 2.86654,13.72979 0.003,0.0138 1.19341,6.18201 2.32524,13.8302 0.002,0.0137 0.93196,6.13026 1.75169,13.70044 7.9719,-12.68185 11.82944,-18.60009 16.28219,-24.9208 0.64135,-0.91041 4.781,-6.76796 9.46755,-12.91731 0.67445,-0.88496 5.02935,-6.58333 9.94287,-12.55288 0.70712,-0.85909 5.27352,-6.38942 10.40845,-12.16962 0.73942,-0.83234 5.50988,-6.18843 10.85891,-11.77109 0.76991,-0.80355 5.73985,-5.9745 11.29619,-11.35086 5.09839,-4.93324 13.98404,-13.03203 19.86745,-18.04839 5.39785,-4.60236 14.77448,-12.12618 20.96185,-16.76241 5.67777,-4.25439 15.51069,-11.173173 21.98147,-15.404833 5.66515,-3.704805 5.52444,-10.573685 -0.75595,-15.081481 -33.55011,-24.080827 -73.19866,-38.261562 -114.41064,-40.920211 -7.71466,-0.497684 -20.26577,-0.484288 -27.97934,0.02996 z m 157.4182,71.198339 c -2.94468,2.13997 -10.32703,7.66548 -16.34531,12.51915 -2.8906,2.33123 -10.03042,8.26034 -15.7962,13.41142 -2.76916,2.47394 -9.60061,8.75562 -15.09846,14.19175 -2.64038,2.61073 -9.14507,9.23005 -14.36009,14.93805 -0.75223,0.82335 -5.58339,6.12699 -10.57159,12.03424 -0.72033,0.85304 -5.34163,6.34184 -10.09602,12.43885 -0.6857,0.87934 -5.08822,6.54367 -9.60146,12.82129 -0.65127,0.90588 -4.83041,6.73757 -9.09605,13.186 -0.61554,0.93052 -4.56481,6.92028 -8.57611,13.52992 -0.57896,0.954 -4.29193,7.09328 -8.04188,13.85462 -0.54079,0.97506 -4.01055,7.25414 -7.49231,14.15741 -0.47471,0.9412 1.92556,7.32581 5.61645,14.11958 0.50306,0.92599 3.91256,7.18151 7.86306,13.82767 0.56991,0.9588 4.24525,7.12011 8.44985,13.6085 0.60631,0.93564 4.5165,6.95017 8.96825,13.27156 0.64223,0.91195 4.78134,6.7718 9.47354,12.91682 0.67631,0.88572 5.03856,6.58037 9.96499,12.53925 0.71083,0.85979 5.29024,6.38259 10.44381,12.14616 0.743,0.83094 5.53246,6.17165 10.90639,11.73031 0.77534,0.80199 5.77023,5.952 11.35645,11.29727 2.69535,2.57908 9.50158,8.90848 15.34857,13.9672 2.82108,2.44075 9.93582,8.42113 16.02879,13.18071 2.94007,2.29667 10.34666,7.91211 16.67233,12.35775 2.94679,2.07099 9.86719,-0.66331 15.019,-6.4272 32.86732,-36.77224 52.46741,-83.5227 55.65106,-132.7398 0.49902,-7.71457 0.50299,-20.26559 0.009,-27.98047 -3.15303,-49.22738 -22.72957,-95.99745 -55.58318,-132.79306 -5.14879,-5.76659 -14.85826,-6.65021 -21.11273,-2.10495 z m -14.6897,311.35847 c -5.83783,-3.71912 -15.65791,-10.41043 -21.89264,-14.98273 -5.75568,-4.22098 -15.25235,-11.65123 -21.17445,-16.6218 -5.46683,-4.58844 -14.45562,-12.62535 -20.03771,-17.97493 -5.15289,-4.93824 -13.59183,-13.5506 -18.80824,-19.25733 -0.7529,-0.82367 -5.58616,-6.12618 -10.57555,-12.03243 -0.7199,-0.85219 -5.34145,-6.33982 -10.09631,-12.43647 -0.68618,-0.87982 -5.08924,-6.54444 -9.60236,-12.82214 -0.65126,-0.90589 -4.83081,-6.73731 -9.09614,-13.18593 -0.61551,-0.93056 -4.56012,-6.92332 -8.56867,-13.53462 -0.46669,-0.76971 -1.45903,4.5956 -2.54547,11.9408 -2.32217,13.81918 -3.45699,19.99783 -5.18383,27.53401 -0.003,0.0136 -1.3802,6.14292 -3.39903,13.60619 -0.004,0.0143 -1.61804,6.08619 -3.92491,13.46552 -0.004,0.0139 -1.85092,6.01906 -4.44186,13.30351 -0.005,0.0146 -2.0845,5.94387 -4.95564,13.1225 -0.006,0.0149 -2.31461,5.85915 -5.46213,12.92097 -0.006,0.0143 -2.53933,5.76463 -5.95936,12.69856 -0.006,0.0125 -2.7591,5.65934 -6.44764,12.45424 -0.007,0.013 -2.97929,5.54828 -6.93239,12.19275 -0.007,0.0112 -3.19292,5.42446 -7.40631,11.90699 -0.008,0.0118 -3.40766,5.29464 -7.87701,11.60341 -0.008,0.0108 -0.02,0.0282 -0.0276,0.0389 -4.42012,6.23749 -2.33946,13.29985 5.08576,15.45155 15.19397,4.40293 30.81781,7.15865 46.60126,8.21947 7.71328,0.51842 20.26439,0.53765 27.97924,0.043 41.716,-2.67486 81.82428,-17.15469 115.62872,-41.7441 6.25171,-4.5475 5.64106,-11.75569 -0.87973,-15.90989 z M 143.10981,67.021361 C 80.782515,104.13453 40.657626,169.62645 35.899401,242.01042 c -0.507089,7.71405 -0.511887,20.26509 -0.01069,27.97952 4.700286,72.34707 44.733223,137.83953 106.97788,175.01202 6.6372,3.96373 15.70719,1.94706 19.71153,-4.2129 7.40242,-11.89847 10.63919,-17.28271 14.32868,-24.07709 0.006,-0.0114 3.02757,-5.51832 6.4486,-12.45175 0.007,-0.0133 2.81196,-5.63487 5.96052,-12.69622 0.006,-0.0128 2.58871,-5.73919 5.46097,-12.91736 0.006,-0.0142 2.36546,-5.83729 4.95755,-13.12133 0.005,-0.0151 2.13908,-5.92553 4.44704,-13.30452 0.004,-0.0141 1.90642,-6.00206 3.92638,-13.46503 0.004,-0.0151 1.67202,-6.07312 3.39994,-13.60906 0.003,-0.0142 1.43455,-6.1316 2.86644,-13.72934 0.003,-0.0137 1.19532,-6.18169 2.32714,-13.82988 0.002,-0.0139 0.95076,-6.22406 1.77845,-13.91111 0.001,-0.0133 0.70208,-6.25593 1.22162,-13.96992 9.3e-4,-0.0138 0.4435,-6.21809 0.65207,-13.87051 -0.6504,-13.84766 -0.6504,-13.84766 -0.6504,-13.84766 -1.21952,-13.95969 -1.86375,-20.20861 -2.9945,-27.85695 -0.002,-0.0133 -0.89422,-6.23124 -2.32504,-13.82918 -0.003,-0.0138 -1.13744,-6.19256 -2.86428,-13.72874 -0.003,-0.0136 -1.37837,-6.14338 -3.39721,-13.60665 -0.004,-0.0141 -1.6179,-6.08572 -3.92478,-13.46505 -0.004,-0.0139 -1.85266,-6.01849 -4.44361,-13.30294 -0.005,-0.0149 -2.08469,-5.94444 -4.95584,-13.12307 -0.006,-0.0149 -2.31365,-5.85956 -5.46122,-12.92136 -0.006,-0.013 -2.53754,-5.76264 -5.95753,-12.69659 -0.007,-0.0134 -2.75989,-5.66093 -6.44843,-12.455829 -0.007,-0.01298 -2.97929,-5.54828 -6.93238,-12.192748 -0.007,-0.01116 -3.1938,-5.423926 -7.40723,-11.906431 -0.007,-0.01106 -0.066,-0.101489 -0.13143,-0.20204 -3.80945,-5.850221 -12.70753,-7.634537 -19.34983,-3.679341 z"
       inkscape:connector-curvature="0"
       inkscape:path-effect="#path-effect39"
       inkscape:original-d="m 256,35.425781 a 220.57582,220.57582 0 0 0 -73.73438,12.931641 c 2.76019,3.589283 5.45519,7.228209 8.07227,10.921875 2.7029,3.814778 5.32906,7.684056 7.87695,11.603515 2.5479,3.919461 5.01772,7.888874 7.40821,11.90625 2.39048,4.017378 4.70097,8.080923 6.93164,12.189454 2.23067,4.10853 4.38077,8.262164 6.44922,12.455074 2.06844,4.19292 4.05516,8.42673 5.95898,12.69727 1.90382,4.27054 3.72611,8.57657 5.46289,12.91797 1.73678,4.3414 3.38969,8.71755 4.95703,13.12305 1.56734,4.40548 3.04787,8.84186 4.44336,13.30468 1.39549,4.46282 2.70455,8.95146 3.92578,13.46485 1.22124,4.51338 2.35582,9.05024 3.40039,13.60742 1.04457,4.55718 1.99974,9.1343 2.86524,13.72851 0.8655,4.59422 1.64019,9.2056 2.32422,13.83008 0.6725,4.5466 1.25325,9.10642 1.74804,13.67578 2.72143,-4.49913 5.52237,-8.95017 8.40821,-13.3457 2.92984,-4.46257 5.94408,-8.87101 9.03906,-13.2207 3.09498,-4.3497 6.2716,-8.64041 9.52734,-12.8711 3.25574,-4.23068 6.58982,-8.40032 10.00196,-12.50586 3.41213,-4.10554 6.90262,-8.14683 10.46679,-12.12109 3.56417,-3.97426 7.20223,-7.88192 10.91407,-11.71875 6.22194,-6.43147 12.64826,-12.6655 19.26367,-18.69141 6.6154,-6.0259 13.41921,-11.84327 20.40039,-17.4414 6.98118,-5.59814 14.13972,-10.97684 21.45898,-16.125002 7.15884,-5.035321 14.48144,-9.836082 21.9375,-14.419922 A 220.57582,220.57582 0 0 0 256,35.425781 Z m 154.89258,63.650391 c -5.68667,3.843758 -11.27732,7.828528 -16.76367,11.953128 -5.52145,4.15098 -10.93907,8.44105 -16.24414,12.86523 -5.30508,4.42419 -10.49905,8.98186 -15.57422,13.66797 -5.07518,4.68611 -10.03154,9.50075 -14.86328,14.4375 -3.73517,3.81634 -7.39415,7.70608 -10.97657,11.66602 -3.58241,3.95993 -7.08871,7.99098 -10.51367,12.08789 -3.42495,4.0969 -6.77042,8.25907 -10.0332,12.48632 -3.26278,4.22726 -6.44317,8.51816 -9.53906,12.86915 -3.0959,4.35098 -6.10695,8.76236 -9.03125,13.23046 -2.92431,4.4681 -5.76177,8.99368 -8.50977,13.57227 -2.748,4.57859 -5.40568,9.21012 -7.97266,13.89258 -2.54906,4.64978 -5.00711,9.35 -7.37304,14.0957 2.37174,4.74306 4.83334,9.4402 7.38672,14.08789 2.57104,4.67985 5.2338,9.31006 7.98437,13.88672 2.75057,4.57666 5.59017,9.09946 8.51563,13.56641 2.92545,4.46694 5.9375,8.8778 9.0332,13.22851 3.0957,4.35072 6.27384,8.64117 9.53515,12.86914 3.26132,4.22797 6.60506,8.39349 10.02735,12.49219 3.42229,4.0987 6.92333,8.13083 10.50195,12.09375 3.57862,3.96292 7.23453,7.85712 10.96485,11.67773 4.83306,4.95006 9.79149,9.7776 14.86718,14.47852 5.0757,4.70092 10.26926,9.27425 15.57422,13.71484 5.30496,4.4406 10.72133,8.74888 16.24219,12.91797 5.45901,4.12239 11.02258,8.10511 16.67969,11.95117 A 220.57582,220.57582 0 0 0 476.57617,256 220.57582,220.57582 0 0 0 410.89258,99.076172 Z m -14.2207,326.714848 c -7.61509,-4.49903 -15.08962,-9.23488 -22.39649,-14.21875 -7.41402,-5.05696 -14.66211,-10.35822 -21.72851,-15.89063 -7.06641,-5.53241 -13.95237,-11.29534 -20.64063,-17.2793 -6.68826,-5.98396 -13.17939,-12.188 -19.45898,-18.59961 -3.73657,-3.81511 -7.39697,-7.70498 -10.98047,-11.66406 -3.58351,-3.95908 -7.08991,-7.98759 -10.51563,-12.08398 -3.42572,-4.09639 -6.77195,-8.25928 -10.03515,-12.48633 -3.26321,-4.22705 -6.44312,-8.51807 -9.53907,-12.86914 -3.09595,-4.35107 -6.10728,-8.76204 -9.03125,-13.23047 -2.85255,-4.35929 -5.61636,-8.77745 -8.30078,-13.24219 -0.48685,4.45527 -1.04735,8.9024 -1.70312,13.33594 -0.68403,4.62448 -1.45872,9.23586 -2.32422,13.83008 -0.8655,4.59421 -1.82067,9.17133 -2.86524,13.72851 -1.04457,4.55719 -2.17915,9.09404 -3.40039,13.60743 -1.22123,4.51338 -2.53029,9.00202 -3.92578,13.46484 -1.39549,4.46282 -2.87602,8.89919 -4.44336,13.30469 -1.56734,4.40549 -3.22025,8.78164 -4.95703,13.12304 -1.73678,4.3414 -3.55907,8.64938 -5.46289,12.91993 -1.90382,4.27054 -3.89054,8.50239 -5.95898,12.69531 -2.06845,4.19292 -4.21855,8.34655 -6.44922,12.45508 -2.23067,4.10853 -4.54116,8.17207 -6.93164,12.18945 -2.39049,4.01738 -4.86031,7.98874 -7.40821,11.9082 -2.54789,3.91946 -5.17405,7.7868 -7.87695,11.60156 -2.67196,3.77112 -5.42109,7.48816 -8.24219,11.1504 A 220.57582,220.57582 0 0 0 256,476.57617 220.57582,220.57582 0 0 0 396.67188,425.79102 Z M 155.35742,60.244141 A 220.57582,220.57582 0 0 0 35.423828,256 220.57582,220.57582 0 0 0 155.10547,451.79492 c 2.55663,-3.62418 5.05557,-7.28762 7.47265,-11.00586 2.5479,-3.91946 5.01772,-7.89082 7.40821,-11.9082 2.39048,-4.01738 4.70097,-8.08092 6.93164,-12.18945 2.23067,-4.10853 4.38077,-8.26216 6.44922,-12.45508 2.06844,-4.19292 4.05516,-8.42477 5.95898,-12.69531 1.90382,-4.27055 3.72416,-8.57853 5.46094,-12.91993 1.73678,-4.3414 3.38969,-8.71755 4.95703,-13.12304 1.56734,-4.4055 3.04982,-8.83992 4.44531,-13.30274 1.39549,-4.46282 2.70455,-8.95341 3.92578,-13.46679 1.22124,-4.51339 2.35387,-9.05024 3.39844,-13.60743 1.04457,-4.55718 1.99974,-9.1343 2.86524,-13.72851 0.8655,-4.59422 1.64215,-9.2056 2.32617,-13.83008 0.68402,-4.62448 1.2772,-9.26217 1.77734,-13.91016 0.50014,-4.64798 0.90686,-9.30597 1.2207,-13.9707 0.31014,-4.60946 0.5245,-9.22647 0.6504,-13.8457 -0.12589,-4.61989 -0.34022,-9.23755 -0.6504,-13.84766 -0.31384,-4.66473 -0.72056,-9.32271 -1.2207,-13.9707 -0.50014,-4.64799 -1.09332,-9.28567 -1.77734,-13.91016 -0.68402,-4.62448 -1.46067,-9.23586 -2.32617,-13.83008 -0.8655,-4.59421 -1.82067,-9.17133 -2.86524,-13.72851 -1.04457,-4.55718 -2.1772,-9.09404 -3.39844,-13.60742 -1.22123,-4.51339 -2.53029,-9.00203 -3.92578,-13.46485 -1.39549,-4.46282 -2.87797,-8.89919 -4.44531,-13.30468 -1.56734,-4.4055 -3.22025,-8.78165 -4.95703,-13.12305 -1.73678,-4.3414 -3.55712,-8.64743 -5.46094,-12.91797 -1.90382,-4.27054 -3.89054,-8.50435 -5.95898,-12.69727 -2.06845,-4.19291 -4.21855,-8.346544 -6.44922,-12.455074 -2.23067,-4.108531 -4.54116,-8.172076 -6.93164,-12.189454 -2.39049,-4.017377 -4.86031,-7.98679 -7.40821,-11.90625 -2.3359,-3.593352 -4.75443,-7.13307 -7.2207,-10.638671 z"
       transform="matrix(0.26458332,0,0,0.26458332,0,161.53336)" />
  </g>
</svg>
